# xmcd
#
# Track frame offsets:
#	150
#	18289
#	33207
#	52582
#	67020
#	82586
#	101117
#	119365
#	138908
#	157021
#
# Disc length: 2414 seconds
#
# Revision: 0
# Processed by: cddbd v1.5.2PL0 Copyright (c) Steve Scherf et al.
# Submitted via: audiograbber 1.83.01
#
DISCID=72096c0a
DTITLE=Paul Cauthen - Room 41
DYEAR=2019
DGENRE=Country
TTITLE0=Holy Ghost Fire
TTITLE1=Prayed For Rain
TTITLE2=Cocaine Country Dancing
TTITLE3=Slow Down
TTITLE4=Big Velvet
TTITLE5=Can't Be Alone
TTITLE6=Freak
TTITLE7=Angel
TTITLE8=Give 'em Peace
TTITLE9=Lay Me Down
EXTD=
EXTT0=
EXTT1=
EXTT2=
EXTT3=
EXTT4=
EXTT5=
EXTT6=
EXTT7=
EXTT8=
EXTT9=
PLAYORDER=
